<?xml version="1.0" encoding="utf-8"?>
<!-- Generator: Adobe Illustrator 22.1.0, SVG Export Plug-In . SVG Version: 6.00 Build 0)  -->
<svg version="1.1" id="Layer_1" xmlns="http://www.w3.org/2000/svg" xmlns:xlink="http://www.w3.org/1999/xlink" x="0px" y="0px"
	 viewBox="0 0 302 176" style="enable-background:new 0 0 302 176;" xml:space="preserve">
<style type="text/css">
	.st0{fill:#B7D575;}
	.st1{fill:#F3A365;}
	.st2{fill:#EE7B23;}
	.st3{fill:#DAC999;}
</style>
<g>
	<path class="st0" d="M202,109.8v3.5h-5.6v5.2h9.2c0,2.4,1.9,4.5,4.5,4.5c2.4,0,4.5-1.9,4.5-4.5V80c1.9-0.7,3.8-1.9,5.2-3.3
		c2.4-2.4,4-5.9,4-9.4c0-7.5-6.1-13.4-13.4-13.4c-3.8,0-7.1,1.4-9.4,4c-2.4,2.4-4,5.9-4,9.4c0,5.9,3.8,10.8,9.2,12.7v24.5H197v5.2
		L202,109.8z M205.1,67.3c0-1.2,0.5-2.4,1.4-3.3c0.9-0.9,2.1-1.4,3.3-1.4c2.6,0,4.7,2.1,4.7,4.7c0,1.2-0.5,2.4-1.4,3.3
		s-2.1,1.4-3.3,1.4C207.2,72,205.1,69.9,205.1,67.3z"/>
</g>
<g>
	<path class="st0" d="M100.2,67v-3.5h5.6v-5.2h-9.2c0-2.4-1.9-4.5-4.5-4.5c-2.4,0-4.5,1.9-4.5,4.5v38.6c-1.9,0.7-3.8,1.9-5.2,3.3
		c-2.4,2.4-4,5.9-4,9.4c0,7.5,6.1,13.4,13.4,13.4c3.8,0,7.1-1.4,9.4-4c2.4-2.4,4-5.9,4-9.4c0-5.9-3.8-10.8-9.2-12.7V72.4h9.3v-5.2
		L100.2,67z M97.2,109.6c0,1.2-0.5,2.4-1.4,3.3s-2.1,1.4-3.3,1.4c-2.6,0-4.7-2.1-4.7-4.7c0-1.2,0.5-2.4,1.4-3.3s2.1-1.4,3.3-1.4
		C95.1,104.9,97.2,107,97.2,109.6z"/>
</g>
<path class="st1" d="M116.9,88.4c0-24.3,13.2-45.6,32.9-56.9c-9.7-5.6-20.9-8.8-32.9-8.8c-36.3,0-65.7,29.4-65.7,65.7
	s29.4,65.7,65.7,65.7c12,0,23.2-3.2,32.9-8.8C130.1,134,116.9,112.8,116.9,88.4z"/>
<path class="st2" d="M182.6,22.7c-12,0-23.2,3.2-32.9,8.8c19.6,11.4,32.9,32.6,32.9,56.9s-13.2,45.6-32.9,56.9
	c9.7,5.6,20.9,8.8,32.9,8.8c36.3,0,65.7-29.4,65.7-65.7S218.9,22.7,182.6,22.7z"/>
<path class="st3" d="M149.8,99.5"/>
<path class="st2" d="M149.9,63.8c-12.2,0-20.7,9.7-20.7,20.7v14.6h8.5V110h3v-3.7h3.7v3.7h3.7v-3.7h3.7v3.7h3.7v-3.7h3.5v3.7h4.2
	V99.1h7.4V84.6C170.5,72.4,160.8,63.8,149.9,63.8z M141.4,90.6c-3.3,0-6-2.7-6-6c0-3.3,2.7-6,6-6s6,2.7,6,6
	C147.4,87.9,144.8,90.6,141.4,90.6z M158.5,90.6c-3.3,0-6-2.7-6-6c0-3.3,2.7-6,6-6c3.3,0,6,2.7,6,6
	C164.5,87.9,161.8,90.6,158.5,90.6z"/>
</svg>
