<?xml version="1.0" encoding="utf-8"?>
<!-- Generator: Adobe Illustrator 22.1.0, SVG Export Plug-In . SVG Version: 6.00 Build 0)  -->
<svg version="1.1" id="Layer_1" xmlns="http://www.w3.org/2000/svg" xmlns:xlink="http://www.w3.org/1999/xlink" x="0px" y="0px"
	 viewBox="0 0 302 176" style="enable-background:new 0 0 302 176;" xml:space="preserve">
<style type="text/css">
	.st0{fill:#CDE29E;}
	.st1{fill:#B7D575;}
</style>
<path class="st0" d="M190.4,158c-13.5,0-26.5-3.8-37.7-11l-1.6-1l-1.6,1c-11.3,7.2-24.3,11-37.8,11c-38.6,0-70-31.4-70-70
	c0-38.6,31.4-70,70-70c13.5,0,26.5,3.8,37.7,11l1.6,1l1.6-1c11.3-7.2,24.3-11,37.8-11c38.6,0,70,31.4,70,70
	C260.4,126.6,228.9,158,190.4,158z M187.7,147.4h2.6c16,0,31-6.2,42.2-17.5c11.1-11.2,17.2-26,17.1-41.7c0-32.7-26.6-59.4-59.4-59.4
	h-2.5l-3.9,0.3h-0.4l-0.2,0c-7.1,0.8-13.9,2.9-20.1,6.1l-3.5,1.8l2.7,2.9c12.4,13.1,19.2,30.2,19.2,48.1s-6.8,35.1-19.2,48.1
	l-2.8,2.9l3.6,1.8c6.3,3.2,13.1,5.3,20.1,6.1l0.2,0h0.4L187.7,147.4z M111.6,28.6c-32.8,0-59.4,26.6-59.4,59.4
	c0,32.8,26.6,59.4,59.4,59.4h2.5l4-0.3c0.3,0,0.6-0.1,0.8-0.2c7-0.9,13.6-2.9,19.7-6.1l3.5-1.8l-2.7-2.9
	c-12.4-13.1-19.2-30.2-19.2-48.1c0-17.9,6.8-35.1,19.2-48.2l2.7-2.9l-3.6-1.8c-6.3-3.2-13.1-5.3-20.1-6.1l-0.2,0h-0.4l-3.9-0.3
	H111.6z M143.7,109.8h14.5V77.3H158c0.6-1,0.9-2.3,0.9-3.6c0-4.1-3.5-7.4-7.9-7.4c-4.4,0-7.9,3.3-7.9,7.4c0,1.3,0.3,2.5,1,3.6h-0.4
	V109.8z"/>
<g>
	<path class="st1" d="M202,109.8v3.5h-5.6v5.2h9.2c0,2.4,1.9,4.5,4.5,4.5c2.4,0,4.5-1.9,4.5-4.5V80c1.9-0.7,3.8-1.9,5.2-3.3
		c2.4-2.4,4-5.9,4-9.4c0-7.5-6.1-13.4-13.4-13.4c-3.8,0-7.1,1.4-9.4,4c-2.4,2.4-4,5.9-4,9.4c0,5.9,3.8,10.8,9.2,12.7v24.5H197v5.2
		L202,109.8z M205.1,67.3c0-1.2,0.5-2.4,1.4-3.3c0.9-0.9,2.1-1.4,3.3-1.4c2.6,0,4.7,2.1,4.7,4.7c0,1.2-0.5,2.4-1.4,3.3
		s-2.1,1.4-3.3,1.4C207.2,72,205.1,69.9,205.1,67.3z"/>
</g>
<g>
	<path class="st1" d="M100.2,67v-3.5h5.6v-5.2h-9.2c0-2.4-1.9-4.5-4.5-4.5c-2.4,0-4.5,1.9-4.5,4.5v38.6c-1.9,0.7-3.8,1.9-5.2,3.3
		c-2.4,2.4-4,5.9-4,9.4c0,7.5,6.1,13.4,13.4,13.4c3.8,0,7.1-1.4,9.4-4c2.4-2.4,4-5.9,4-9.4c0-5.9-3.8-10.8-9.2-12.7V72.4h9.3v-5.2
		L100.2,67z M97.2,109.6c0,1.2-0.5,2.4-1.4,3.3s-2.1,1.4-3.3,1.4c-2.6,0-4.7-2.1-4.7-4.7c0-1.2,0.5-2.4,1.4-3.3s2.1-1.4,3.3-1.4
		C95.1,104.9,97.2,107,97.2,109.6z"/>
</g>
<path class="st1" d="M151.1,62.6c-14,0-25.4,11.4-25.4,25.4s11.4,25.4,25.4,25.4S176.5,102,176.5,88S165.1,62.6,151.1,62.6z
	 M155.2,106.8h-8.5V80.3h8.5V106.8z M151.1,78.1c-3,0-4.9-2.1-4.9-4.4c0-2.2,2-4.4,4.9-4.4c2.9,0,4.9,2.1,4.9,4.4
	C155.9,76.3,153.9,78.1,151.1,78.1z"/>
</svg>
