<?xml version="1.0" encoding="utf-8"?>
<!-- Generator: Adobe Illustrator 22.1.0, SVG Export Plug-In . SVG Version: 6.00 Build 0)  -->
<svg version="1.1" id="Layer_1" xmlns="http://www.w3.org/2000/svg" xmlns:xlink="http://www.w3.org/1999/xlink" x="0px" y="0px"
	 viewBox="0 0 302 176" style="enable-background:new 0 0 302 176;" xml:space="preserve">
<style type="text/css">
	.st0{fill:#DAC999;}
	.st1{fill:#F37F6A;}
	.st2{fill:#EF4C30;}
</style>
<path class="st0" d="M149.8,99.5"/>
<circle class="st1" cx="183.1" cy="32" r="13.2"/>
<circle class="st1" cx="151.8" cy="136.2" r="22"/>
<path class="st2" d="M183.1,18.8c-7.3,0-13.2,5.9-13.2,13.2c0,0.5,0,1,0.1,1.5l-23.7,13.6c-7.3-9.5-18.8-15.7-31.8-15.7
	c-22.2,0-40.1,18-40.1,40.1s18,40.1,40.1,40.1c5.4,0,10.6-1.1,15.3-3l6.7,11.7c-4.1,4-6.7,9.6-6.7,15.8c0,12.1,9.8,22,22,22
	s22-9.8,22-22c0-12.1-9.8-22-22-22c-2.1,0-4.1,0.3-6.1,0.9l-6.7-11.7c9.5-7.3,15.7-18.8,15.7-31.8c0-5.4-1.1-10.6-3-15.3l23.7-13.6
	c2.2,1.6,4.9,2.6,7.8,2.6c7.3,0,13.2-5.9,13.2-13.2C196.4,24.7,190.4,18.8,183.1,18.8z M164.3,136.2c0,6.9-5.6,12.5-12.5,12.5
	s-12.5-5.6-12.5-12.5c0-6.9,5.6-12.5,12.5-12.5S164.3,129.3,164.3,136.2z M183.1,39.9c-4.4,0-7.9-3.6-7.9-7.9s3.6-7.9,7.9-7.9
	s7.9,3.6,7.9,7.9S187.5,39.9,183.1,39.9z"/>
<path class="st2" d="M114.5,51.2c11.2,0,20.4,9.1,20.4,20.4S125.8,92,114.5,92s-20.4-9.1-20.4-20.4S103.3,51.2,114.5,51.2
	 M114.5,31.5c-22.2,0-40.1,18-40.1,40.1c0,22.2,18,40.1,40.1,40.1c22.2,0,40.1-18,40.1-40.1C154.6,49.4,136.7,31.5,114.5,31.5
	L114.5,31.5z"/>
<circle class="st1" cx="114.5" cy="71.6" r="20.4"/>
</svg>
