<?xml version="1.0" encoding="utf-8"?>
<!-- Generator: Adobe Illustrator 22.1.0, SVG Export Plug-In . SVG Version: 6.00 Build 0)  -->
<svg version="1.1" id="Layer_1" xmlns="http://www.w3.org/2000/svg" xmlns:xlink="http://www.w3.org/1999/xlink" x="0px" y="0px"
	 viewBox="0 0 302 176" style="enable-background:new 0 0 302 176;" xml:space="preserve">
<style type="text/css">
	.st0{fill:#FBBB83;}
	.st1{fill:#EC7B23;}
</style>
<g>
	<path class="st0" d="M187.7,87.4c0,0.2,0,0.4,0,0.6c0,10.6-8.6,19.2-19.2,19.2h-38.4c-10.6,0-19.2-8.6-19.2-19.2c0-0.2,0-0.4,0-0.6
		H82l67.4,67.4l67.4-67.4H187.7z"/>
	<path class="st1" d="M130.2,68.9c0-10.6,8.6-19.2,19.2-19.2c10.6,0,19.2,8.6,19.2,19.2c10.4,0,18.8,8.3,19.2,18.6h29.1L149.4,20
		L82,87.4h29.1C111.4,77.1,119.8,68.9,130.2,68.9z"/>
	<path class="st1" d="M143.3,71.5c0-3.4,2.8-6.2,6.1-6.2c3.4,0,6.1,2.8,6.1,6.2H143.3z M151,84.5v2.1h-3.3v-2.1
		c-1-0.6-1.6-1.6-1.6-2.8c0-1.8,1.5-3.3,3.3-3.3c1.8,0,3.3,1.5,3.3,3.3C152.7,82.8,152,83.9,151,84.5 M157.4,71.5c0-4.4-3.6-8-8-8
		c-4.4,0-8,3.6-8,8h-2.9v21.9h21.7V71.5H157.4z"/>
</g>
</svg>
