<?xml version="1.0" encoding="utf-8"?>
<!-- Generator: Adobe Illustrator 22.1.0, SVG Export Plug-In . SVG Version: 6.00 Build 0)  -->
<svg version="1.1" id="Layer_1" xmlns="http://www.w3.org/2000/svg" xmlns:xlink="http://www.w3.org/1999/xlink" x="0px" y="0px"
	 viewBox="0 0 302 176" style="enable-background:new 0 0 302 176;" xml:space="preserve">
<style type="text/css">
	.st0{fill:#DAC999;}
	.st1{fill:#FEE098;}
	.st2{fill:#FDC131;}
	.st3{fill:#FCBB2F;}
</style>
<path class="st0" d="M148.2,99.5"/>
<g>
	<circle class="st1" cx="153.3" cy="87.1" r="33.5"/>
</g>
<g>
	<path class="st2" d="M163.6,83H158v-7.8c0-3-2.5-5.5-5.5-5.5s-5.5,2.5-5.5,5.5V83h-5.7v-7.8c0-6.1,5-11.1,11.1-11.1
		s11.1,4.9,11.1,11.1V83z"/>
	<path class="st2" d="M138,81.5v13.9c0,8,6.5,14.6,14.6,14.6s14.6-6.5,14.6-14.6V81.5H138z M154.7,97.3v2.9h-4.6v-2.9
		c-1.4-0.7-2.4-2.2-2.4-4c0-2.6,2-4.6,4.6-4.6c2.6,0,4.6,2,4.6,4.6C157.1,95.1,156.1,96.6,154.7,97.3z"/>
</g>
<path class="st2" d="M191.6,83.3c-0.5-5-2-9.7-4.2-14c-1.4-2.6-3-5-4.8-7.2c-7.2-8.6-18-13.9-30-13.9s-22.8,5.5-30,13.9
	c-1.8,2.2-3.5,4.6-4.8,7.2c-2.2,4.3-3.6,9-4.2,14c-0.1,1.4-0.2,2.8-0.2,4.2s0.1,2.8,0.2,4.2c0.5,5,2,9.7,4.2,14c1.4,2.6,3,5,4.8,7.2
	c7.2,8.6,18,13.9,30,13.9s22.8-5.5,30-13.9c1.8-2.2,3.5-4.6,4.8-7.2c2.2-4.3,3.6-9,4.2-14c0.1-1.4,0.2-2.8,0.2-4.2
	S191.7,84.7,191.6,83.3z M179,103.3c-1.6,2.7-3.6,5.1-6,7.3c-4.5,4-10.2,6.7-16.4,7.6c-1.4,0.2-2.8,0.3-4.2,0.3s-2.8-0.1-4.2-0.3
	c-6.2-0.9-11.9-3.5-16.4-7.6c-2.4-2.1-4.4-4.5-6-7.3c-2.1-3.5-3.5-7.5-4.1-11.7c-0.2-1.4-0.3-2.8-0.3-4.2s0.1-2.8,0.3-4.2
	c0.5-4.2,2-8.1,4.1-11.7c1.6-2.7,3.6-5.1,6-7.3c4.5-4,10.2-6.7,16.4-7.6c1.4-0.2,2.8-0.3,4.2-0.3s2.8,0.1,4.2,0.3
	c6.2,0.9,11.9,3.5,16.4,7.6c2.4,2.1,4.4,4.5,6,7.3c2.1,3.5,3.5,7.5,4.1,11.7c0.2,1.4,0.3,2.8,0.3,4.2s-0.1,2.8-0.3,4.2
	C182.6,95.8,181.2,99.8,179,103.3z"/>
<rect x="149" y="30.3" class="st2" width="7.1" height="22.7"/>
<rect x="181.4" y="60.9" transform="matrix(0.8659 -0.5002 0.5002 0.8659 -6.4047 104.8966)" class="st2" width="22.1" height="7.1"/>
<rect x="188.9" y="99.5" transform="matrix(0.5002 -0.8659 0.8659 0.5002 0.3774 221.8958)" class="st2" width="7.1" height="22.1"/>
<rect x="109" y="53.4" transform="matrix(0.4999 -0.8661 0.8661 0.4999 0.4442 129.6877)" class="st2" width="7.1" height="22.1"/>
<rect x="101.4" y="107" transform="matrix(0.8658 -0.5003 0.5003 0.8658 -40.1703 71.1703)" class="st2" width="22.4" height="7.1"/>
<rect x="141.7" y="130.4" transform="matrix(1.006035e-03 -1 1 1.006035e-03 18.4089 286.2672)" class="st2" width="21.6" height="7.1"/>
<g>
	<path class="st1" d="M152.5,33c-5.5,0-10-4.5-10-10s4.5-10,10-10s10,4.5,10,10C162.5,28.7,158.1,33,152.5,33z"/>
	<g>
		<path class="st3" d="M152.5,15.3c4.3,0,7.8,3.5,7.8,7.8s-3.5,7.8-7.8,7.8s-7.8-3.5-7.8-7.8S148.2,15.3,152.5,15.3 M152.5,11
			c-6.7,0-12.1,5.5-12.1,12.1c0,6.7,5.5,12.1,12.1,12.1c6.6,0,12.1-5.5,12.1-12.1S159.2,11,152.5,11L152.5,11z"/>
	</g>
</g>
<g>
	<path class="st1" d="M208.2,65.2c-5.5,0-10-4.5-10-10s4.5-10,10-10c5.5,0,10,4.5,10,10S213.7,65.2,208.2,65.2z"/>
	<g>
		<path class="st3" d="M208.2,47.5c4.3,0,7.8,3.5,7.8,7.8s-3.5,7.8-7.8,7.8c-4.3,0-7.8-3.5-7.8-7.8C200.4,51,204,47.5,208.2,47.5
			 M208.2,43.2c-6.7,0-12.1,5.5-12.1,12.1c0,6.7,5.5,12.1,12.1,12.1c6.7,0,12.1-5.5,12.1-12.1C220.3,48.6,215,43.2,208.2,43.2
			L208.2,43.2z"/>
	</g>
</g>
<path class="st1" d="M208.2,129.7c-5.5,0-10-4.5-10-10c0-5.5,4.5-10,10-10c5.5,0,10,4.5,10,10C218.2,125.2,213.7,129.7,208.2,129.7z
	"/>
<g>
	<path class="st3" d="M208.2,111.9c4.3,0,7.8,3.5,7.8,7.8c0,4.3-3.5,7.8-7.8,7.8c-4.3,0-7.8-3.5-7.8-7.8
		C200.4,115.4,204,111.9,208.2,111.9 M208.2,107.5c-6.7,0-12.1,5.5-12.1,12.1c0,6.6,5.5,12.1,12.1,12.1c6.7,0,12.1-5.5,12.1-12.1
		C220.3,113,215,107.5,208.2,107.5L208.2,107.5z"/>
</g>
<g>
	<path class="st1" d="M152.5,161.9c-5.5,0-10-4.5-10-10s4.5-10,10-10s10,4.5,10,10S158,161.9,152.5,161.9z"/>
	<g>
		<path class="st3" d="M152.5,144.1c4.3,0,7.8,3.5,7.8,7.8s-3.5,7.8-7.8,7.8s-7.8-3.5-7.8-7.8S148.2,144.1,152.5,144.1 M152.5,139.7
			c-6.7,0-12.1,5.5-12.1,12.1c0,6.6,5.3,12.2,12.1,12.2c6.7,0,12.1-5.5,12.1-12.1S159.1,139.7,152.5,139.7L152.5,139.7z"/>
	</g>
</g>
<g>
	<path class="st1" d="M96.8,129.7c-5.5,0-10-4.5-10-10c0-5.5,4.5-10,10-10s10,4.5,10,10C106.7,125.2,102.3,129.7,96.8,129.7z"/>
	<g>
		<path class="st3" d="M96.8,111.9c4.3,0,7.8,3.5,7.8,7.8c0,4.3-3.5,7.8-7.8,7.8c-4.3,0-7.8-3.5-7.8-7.8
			C88.9,115.4,92.5,111.9,96.8,111.9 M96.8,107.5c-6.7,0-12.1,5.5-12.1,12.1c0,6.6,5.5,12.1,12.1,12.1s12.1-5.5,12.1-12.1
			C108.8,113,103.5,107.5,96.8,107.5L96.8,107.5z"/>
	</g>
</g>
<g>
	<circle class="st1" cx="96.8" cy="55.3" r="10"/>
	<g>
		<path class="st3" d="M96.8,47.5c4.3,0,7.8,3.5,7.8,7.8s-3.5,7.8-7.8,7.8c-4.3,0-7.8-3.5-7.8-7.8S92.5,47.5,96.8,47.5 M96.8,43.2
			c-6.7,0-12.1,5.5-12.1,12.1c0,6.7,5.5,12.1,12.1,12.1s12.1-5.5,12.1-12.1C109,48.6,103.5,43.2,96.8,43.2L96.8,43.2z"/>
	</g>
</g>
</svg>
