<svg xmlns="http://www.w3.org/2000/svg" width="170" height="60" viewBox="0 0 268 94.868"><path fill="#47C7FB" d="M0 53.697c.019-.107.052-.214.054-.322.108-5.929 1.466-11.558 4.042-16.896a40.503 40.503 0 0 1 4.246-6.902c.102-.134.206-.265.321-.412 1.466.725 2.781 1.711 4.314 2.327l-1.507 2.64c-.443.778-.313 1.259.467 1.704.841.48 1.683.961 2.528 1.437.591.333 1.125.19 1.465-.397.519-.897 1.035-1.798 1.543-2.702.315-.56.155-1.12-.407-1.443-.839-.484-1.684-.96-2.526-1.441-.104-.06-.205-.125-.256-.157.395-.666.783-1.308 1.158-1.958a491.767 491.767 0 0 0 1.982-3.463c.585-1.032.313-1.99-.718-2.585a738.764 738.764 0 0 1-3.332-1.933c-.821-.479-1.042-1.313-.568-2.146a836.353 836.353 0 0 1 2.235-3.903c.483-.838 1.323-1.062 2.168-.58 1.301.744 2.602 1.49 3.901 2.237.813.467 1.048 1.291.593 2.109a643.377 643.377 0 0 1-2.026 3.625c-.6 1.065-.338 2.02.708 2.642a138.487 138.487 0 0 0 10.007 5.366c.12.058.236.122.381.198-.282.492-.552.957-.818 1.423-1.899 3.316-3.751 6.656-5.134 10.231-.942 2.434-1.705 4.916-2.053 7.514-1.086 8.074 1.042 15.175 6.527 21.206 3.613 3.972 8.1 6.504 13.378 7.54 5.271 1.034 10.378.386 15.261-1.825 5.55-2.513 9.789-6.464 12.59-11.894 1.631-3.162 2.511-6.538 2.565-10.102.101-6.698-1.831-12.713-6.157-17.885a22.191 22.191 0 0 0-8.18-6.141c-.103-.045-.204-.095-.306-.143-.007-.003-.007-.019-.031-.088.607.104 1.188.191 1.764.302 3.711.715 7.207 1.989 10.368 4.091 5.227 3.474 8.51 8.315 10.027 14.379.425 1.7.67 3.428.758 5.177.003.085.036.17.055.254v2.776c-.02.107-.048.214-.057.324-.057.662-.089 1.328-.167 1.988-.506 4.282-1.771 8.339-3.673 12.2-2.626 5.329-6.265 9.862-10.863 13.611-6.702 5.468-14.389 8.467-23.016 9.063-.544.038-1.088.083-1.634.125h-2.505c-.085-.019-.169-.052-.256-.054a37.56 37.56 0 0 1-6.31-.709c-8.083-1.605-15.058-5.316-20.915-11.109a39.863 39.863 0 0 1-7.883-11.039C1.519 66.614.16 60.974.049 55.036c.003-.109-.03-.216-.049-.323v-1.016zM41.103 0c.838.477 1.677.954 2.515 1.433.662.379.787.83.412 1.484-.419.733-.837 1.466-1.259 2.197-.317.546-.795.678-1.344.368-.765-.431-1.528-.867-2.288-1.308-.554-.321-.674-.781-.356-1.343.388-.686.791-1.364 1.167-2.056.18-.333.393-.616.746-.775h.407z"/><path fill="#47C7FB" d="M44.493 33.317c-.065.194-.133.569-.309.883a520.163 520.163 0 0 1-3.237 5.666c-.637 1.103-1.826 1.413-2.938.779a2358.355 2358.355 0 0 1-5.574-3.19c-1.137-.652-1.458-1.85-.809-2.984a7306.23 7306.23 0 0 1 3.176-5.543c.654-1.139 1.843-1.465 2.98-.815 1.87 1.068 3.736 2.14 5.607 3.206.707.403 1.055 1.017 1.104 1.998m-7.248-15.721c-.098.283-.156.588-.3.845a422.519 422.519 0 0 1-2.614 4.582c-.485.842-1.455 1.111-2.307.63a548.699 548.699 0 0 1-4.611-2.629c-.844-.487-1.116-1.466-.638-2.311a464.744 464.744 0 0 1 2.641-4.606c.5-.86 1.471-1.117 2.338-.625 1.529.868 3.053 1.745 4.577 2.622.565.325.853.816.914 1.492m2.044-3.904c.07-.198.113-.412.214-.593a255.293 255.293 0 0 1 1.742-3.052c.348-.601.99-.785 1.6-.443 1.042.583 2.078 1.177 3.108 1.78.568.332.748.973.427 1.551a152.43 152.43 0 0 1-1.811 3.17c-.309.528-.93.717-1.469.422a115.006 115.006 0 0 1-3.29-1.874c-.34-.199-.5-.539-.521-.961"/><path d="M127.677 46.551h4.803l-12.894 31.845-6.404-15.922-6.447 15.922L93.84 46.551h4.803l8.092 19.904 4.024-9.909-4.024-9.995h4.76l1.687 4.067 2.38 5.928 4.024 9.909zm13.955 8.957c1.583 0 3.072.303 4.47.908 1.396.606 2.619 1.428 3.67 2.466s1.879 2.265 2.484 3.678c.604 1.414.907 2.914.907 4.5v11.207h-4.457V76.17c-.98.743-2.063 1.328-3.245 1.757s-2.452.643-3.808.643c-1.587 0-3.08-.303-4.479-.908a11.684 11.684 0 0 1-3.657-2.466 11.684 11.684 0 0 1-2.466-3.657 11.138 11.138 0 0 1-.909-4.478c0-1.586.302-3.086.907-4.5.604-1.413 1.425-2.64 2.461-3.678s2.253-1.86 3.649-2.466a11.128 11.128 0 0 1 4.473-.909m.021 18.605c.98 0 1.896-.188 2.747-.566s1.594-.885 2.229-1.524a7.281 7.281 0 0 0 1.514-2.241 6.712 6.712 0 0 0 .563-2.722 6.81 6.81 0 0 0-.563-2.764 7.302 7.302 0 0 0-1.514-2.243 7.284 7.284 0 0 0-2.229-1.524 6.706 6.706 0 0 0-2.747-.565c-.981 0-1.897.188-2.748.565a7.267 7.267 0 0 0-2.229 1.524 7.29 7.29 0 0 0-1.514 2.243 6.794 6.794 0 0 0-.563 2.764c0 .958.187 1.865.563 2.722a7.281 7.281 0 0 0 1.514 2.241 7.243 7.243 0 0 0 2.229 1.524 6.692 6.692 0 0 0 2.748.566m32.668-18.562l-7.529 17.264-2.423 5.539-2.423-5.539-7.529-17.264h4.804l5.148 11.769 5.15-11.769zm15.059 12.851h-8.697a7.033 7.033 0 0 0 2.423 3.937 7.027 7.027 0 0 0 2.033 1.147 6.88 6.88 0 0 0 2.38.411c1.01 0 1.954-.202 2.834-.606a7.179 7.179 0 0 0 2.315-1.688h5.235c-.173.433-.383.844-.628 1.233s-.512.772-.8 1.146c-1.038 1.327-2.337 2.387-3.895 3.18-1.558.794-3.245 1.19-5.063 1.19-1.587 0-3.072-.296-4.457-.887a11.427 11.427 0 0 1-3.634-2.445 11.43 11.43 0 0 1-2.445-3.635c-.592-1.385-.887-2.87-.887-4.457 0-1.586.295-3.072.887-4.457a11.42 11.42 0 0 1 2.445-3.635 11.44 11.44 0 0 1 3.634-2.444c1.385-.591 2.87-.887 4.457-.887 1.817 0 3.505.397 5.063 1.19a11.299 11.299 0 0 1 3.895 3.224c.951 1.154 1.644 2.51 2.077 4.067.26.924.39 1.904.39 2.942a8.02 8.02 0 0 1-.13 1.471h-9.432zm-1.861-8.438c-1.413 0-2.676.365-3.786 1.092a7.046 7.046 0 0 0-2.531 2.889h12.635c-.145-.229-.281-.456-.411-.685s-.267-.443-.411-.643a7.096 7.096 0 0 0-2.423-1.947 6.856 6.856 0 0 0-3.073-.706m32.711-13.5c2.191 0 4.254.418 6.188 1.254 1.932.837 3.612 1.977 5.04 3.418 1.429 1.443 2.554 3.137 3.376 5.084.821 1.947 1.233 4.031 1.233 6.252 0 2.192-.412 4.255-1.233 6.187a16.022 16.022 0 0 1-3.376 5.063c-1.428 1.443-3.108 2.582-5.04 3.418-1.934.837-3.996 1.254-6.188 1.254-2.193 0-4.248-.417-6.166-1.254a15.963 15.963 0 0 1-5.02-3.418 16.025 16.025 0 0 1-3.375-5.063c-.822-1.932-1.233-3.995-1.233-6.187 0-2.221.411-4.306 1.233-6.252.822-1.948 1.947-3.642 3.375-5.084a15.98 15.98 0 0 1 5.02-3.418c1.918-.836 3.973-1.254 6.166-1.254m0 27.476c1.499 0 2.921-.302 4.262-.906a11.16 11.16 0 0 0 3.505-2.457 11.592 11.592 0 0 0 2.358-3.643c.576-1.393.865-2.88.865-4.461 0-1.581-.289-3.075-.865-4.483-.578-1.408-1.363-2.637-2.358-3.686a11.015 11.015 0 0 0-3.505-2.479 10.28 10.28 0 0 0-4.262-.905 10.13 10.13 0 0 0-4.241.905 11.064 11.064 0 0 0-3.482 2.479 11.78 11.78 0 0 0-2.358 3.686 11.705 11.705 0 0 0-.865 4.483c0 1.581.288 3.068.865 4.461a11.558 11.558 0 0 0 2.358 3.643 11.21 11.21 0 0 0 3.482 2.457c1.327.604 2.74.906 4.241.906m35.135 0c1.846 0 3.541-.439 5.084-1.32a11.094 11.094 0 0 0 3.786-3.526L268 71.907a15.877 15.877 0 0 1-5.431 4.673c-2.179 1.154-4.579 1.731-7.204 1.731-2.164 0-4.197-.418-6.101-1.255a15.96 15.96 0 0 1-4.977-3.397c-1.414-1.428-2.531-3.1-3.354-5.019-.822-1.918-1.233-3.973-1.233-6.166s.411-4.248 1.233-6.166 1.939-3.591 3.354-5.02a15.934 15.934 0 0 1 4.977-3.396c1.903-.836 3.937-1.255 6.101-1.255 2.625 0 5.025.578 7.204 1.731A15.876 15.876 0 0 1 268 53.041l-3.765 2.813a11.084 11.084 0 0 0-3.786-3.526c-1.543-.879-3.238-1.319-5.084-1.319-1.5 0-2.906.303-4.219.908a11.04 11.04 0 0 0-3.439 2.466 11.873 11.873 0 0 0-2.337 3.635c-.577 1.385-.865 2.871-.865 4.457s.288 3.072.865 4.457a11.838 11.838 0 0 0 2.337 3.634 11.02 11.02 0 0 0 3.439 2.466 9.959 9.959 0 0 0 4.219.908"/></svg>